<?xml version="1.0" encoding="UTF-8"?>
<svg xmlns="http://www.w3.org/2000/svg" viewBox="0 0 64 64">
  <defs>
    <radialGradient id="bg" cx="50%" cy="30%" r="70%">
      <stop offset="0%" stop-color="#a855f7"/>
      <stop offset="40%" stop-color="#9333ea"/>
      <stop offset="100%" stop-color="#4c1d95"/>
    </radialGradient>
  </defs>

  <circle cx="32" cy="32" r="30" fill="url(#bg)" />

  <g fill="none" stroke="#ffffff" stroke-width="3" stroke-linecap="round" stroke-linejoin="round">
    <path d="M32 14a16 16 0 0 1 0 32 16 16 0 0 1-8.5-2.5L18 46l2.5-6.5A16 16 0 0 1 16 30 16 16 0 0 1 32 14z" />
  </g>

  <g transform="translate(32 30)" fill="none" stroke="#ffffff" stroke-width="2" stroke-linecap="round" stroke-linejoin="round">
    <circle cx="0" cy="0" r="6" />
    <g>
      <path d="M0 -9 L0 -7" />
      <path d="M0 9 L0 7" />
      <path d="M9 0 L7 0" />
      <path d="M-9 0 L-7 0" />
      <path d="M6.4 -6.4 L4.8 -4.8" />
      <path d="M-6.4 -6.4 L-4.8 -4.8" />
      <path d="M6.4 6.4 L4.8 4.8" />
      <path d="M-6.4 6.4 L-4.8 4.8" />
    </g>

    <path d="M-9 -2.5A11 11 0 0 1 0 -11" />
    <path d="M0 11A11 11 0 0 1 9 2.5" />
    <path d="M0 -11 L-2 -9" />
    <path d="M9 2.5 L7 0.5" />

    <polygon points="1.5,-3.5 7,0 1.5,3.5" fill="#ffffff" stroke="none" />
  </g>
</svg>
